<svg width="104" height="96" viewBox="0 0 104 96" fill="none"
    xmlns="http://www.w3.org/2000/svg">
    <g clip-path="url(#clip0_240_1009)">
        <path opacity="0.99" fill-rule="evenodd" clip-rule="evenodd" d="M34.0385 -0.0683594C44.5223 -0.0683594 55.0062 -0.0683594 65.4901 -0.0683594C75.2395 0.93621 82.7646 5.48793 88.0653 13.5868C92.7361 21.6554 97.4423 29.7013 102.184 37.7247C103.09 39.239 103.672 40.8482 103.931 42.5523C103.931 43.6098 103.931 44.6672 103.931 45.7247C103.656 47.2041 103.167 48.6294 102.463 50.0006C100.728 53.0118 98.9573 56.0003 97.1514 58.9661C91.0828 48.5987 84.9788 38.2539 78.8395 27.9316C73.0301 20.1783 65.2253 15.8334 55.4256 14.8972C43.4973 14.8512 31.5689 14.8052 19.6406 14.7592C21.626 11.2312 23.6994 7.75992 25.8611 4.34543C28.0446 1.87763 30.7704 0.406365 34.0385 -0.0683594Z" fill="#111315"/>
        <path opacity="0.992" fill-rule="evenodd" clip-rule="evenodd" d="M19.6406 17.8614C31.6386 17.7006 43.6602 17.6777 55.7051 17.7924C64.2839 18.7243 71.1567 22.5635 76.3234 29.3097C82.4571 39.5977 88.5377 49.9195 94.5654 60.2752C88.7404 60.3901 82.9161 60.3672 77.0922 60.2062C74.2153 55.31 71.3031 50.4364 68.3557 45.5855C62.635 37.9908 54.97 33.692 45.3611 32.689C39.6764 32.6431 33.9919 32.597 28.3073 32.5511C25.4323 27.6345 22.5434 22.738 19.6406 17.8614Z" fill="#111315"/>
        <path opacity="0.99" fill-rule="evenodd" clip-rule="evenodd" d="M16.985 19.2422C17.205 19.3025 17.3681 19.4404 17.4742 19.656C23.4144 29.9081 29.4252 40.115 35.5065 50.2767C41.2269 57.8713 48.8919 62.1701 58.5011 63.1732C70.5225 63.2422 82.544 63.2652 94.5656 63.2422C91.7932 68.1888 88.9509 73.1083 86.0388 78.0008C73.4584 78.1618 60.8777 78.1847 48.2968 78.0698C39.4965 77.1 32.4841 73.123 27.2592 66.1387C20.9802 55.5407 14.7364 44.92 8.528 34.2767C8.43928 33.9822 8.48587 33.7063 8.66779 33.4491C11.4418 28.7096 14.2142 23.974 16.985 19.2422Z" fill="#111315"/>
        <path opacity="0.99" fill-rule="evenodd" clip-rule="evenodd" d="M69.8222 95.931C59.3383 95.931 48.8544 95.931 38.3705 95.931C28.4921 94.9097 20.9204 90.2661 15.6555 81.9999C11.0313 74.0234 6.3718 66.0693 1.677 58.1379C0.769918 56.6239 0.18748 55.0148 -0.0703125 53.3103C-0.0703125 52.2528 -0.0703125 51.1954 -0.0703125 50.1379C0.204301 48.6586 0.693548 47.2332 1.39743 45.862C3.13278 42.8508 4.90338 39.8623 6.70926 36.8965C12.72 47.1034 18.7308 57.3103 24.7415 67.5172C30.574 75.4664 38.4719 79.9492 48.4351 80.9655C60.3636 80.9885 72.292 81.0575 84.22 81.1723C82.2169 84.6661 80.1435 88.1144 77.9996 91.5172C75.816 93.985 73.0902 95.4562 69.8222 95.931Z" fill="#111315"/>
    </g>
    <defs>
        <clipPath id="clip0_240_1009">
            <rect width="104" height="96" fill="white"/>
        </clipPath>
    </defs>
</svg>
